<?xml version="1.0" encoding="UTF-8" standalone="no"?>
<!-- Created with Inkscape (http://www.inkscape.org/) -->

<svg
   xmlns:dc="http://purl.org/dc/elements/1.1/"
   xmlns:cc="http://creativecommons.org/ns#"
   xmlns:rdf="http://www.w3.org/1999/02/22-rdf-syntax-ns#"
   xmlns:svg="http://www.w3.org/2000/svg"
   xmlns="http://www.w3.org/2000/svg"
   xmlns:sodipodi="http://sodipodi.sourceforge.net/DTD/sodipodi-0.dtd"
   xmlns:inkscape="http://www.inkscape.org/namespaces/inkscape"
   width="84.568275mm"
   height="84.568275mm"
   viewBox="0 0 299.65137 299.65137"
   id="svg9024"
   version="1.1"
   inkscape:version="0.91 r13725"
   sodipodi:docname="slidebg-title_bottomright.svg">
  <defs
     id="defs9026" />
  <sodipodi:namedview
     id="base"
     pagecolor="#ffffff"
     bordercolor="#666666"
     borderopacity="1.0"
     inkscape:pageopacity="0.0"
     inkscape:pageshadow="2"
     inkscape:zoom="0.7"
     inkscape:cx="611.93878"
     inkscape:cy="-384.91106"
     inkscape:document-units="px"
     inkscape:current-layer="layer1"
     showgrid="false"
     fit-margin-top="0"
     fit-margin-left="0"
     fit-margin-right="0"
     fit-margin-bottom="0"
     inkscape:window-width="1920"
     inkscape:window-height="1161"
     inkscape:window-x="0"
     inkscape:window-y="18"
     inkscape:window-maximized="0" />
  <metadata
     id="metadata9029">
    <rdf:RDF>
      <cc:Work
         rdf:about="">
        <dc:format>image/svg+xml</dc:format>
        <dc:type
           rdf:resource="http://purl.org/dc/dcmitype/StillImage" />
        <dc:title></dc:title>
      </cc:Work>
    </rdf:RDF>
  </metadata>
  <g
     inkscape:label="Layer 1"
     inkscape:groupmode="layer"
     id="layer1"
     transform="translate(904.11137,471.74919)">
    <g
       transform="matrix(0.75,0,0,0.75,-1521.335,-264.24382)"
       id="g8853">
      <path
         inkscape:connector-curvature="0"
         id="rect6205"
         d="m 1222.5,-163.52148 -286.38281,286.38281 286.38281,0 0,-286.38281 z"
         style="fill:#cc0000;fill-opacity:1;stroke:none" />
      <path
         inkscape:connector-curvature="0"
         id="rect7146"
         d="m 1222.5,-276.67383 -399.53516,399.53516 62.57227,0 336.96289,-336.96289 0,-62.57227 z"
         style="fill:#cc0000;fill-opacity:1;stroke:none;stroke-width:1;stroke-miterlimit:4;stroke-dasharray:none;stroke-opacity:1" />
      <path
         inkscape:connector-curvature="0"
         id="polyline4819"
         d="m 1221.3242,-275.61328 0,0.75 1.1758,0 0,-0.75 -1.1758,0 z m -3.8984,3.90039 0,0.75 5.0742,0 0,-0.75 -5.0742,0 z m -3.9766,3.90039 0,0.75 9.0508,0 0,-0.75 -9.0508,0 z m -4.2734,3.97461 0,31.27539 -31.2774,0 0,31.27539 -31.2734,0 0,31.27344 -31.2754,0 0,31.27539 -31.2754,0 0,31.27539 -31.2734,0 0,31.27539 -31.3516,0 0,31.349609 -31.27342,0 0,31.275391 -31.27734,0 0,31.275391 -31.27344,0 0,31.273437 -31.27539,0 0,31.275391 -31.27539,0 0,31.275391 -31.27344,0 0,11.32422 0.75,0 0,-10.57422 30.52344,0 0,10.57422 0.75,0 0,-10.57422 31.27539,0 0,-31.275391 31.27539,0 0,-31.275391 31.27344,0 0,-31.273437 31.27734,0 0,-31.275391 31.27342,0 0,-31.275391 31.3516,0 0,-31.349609 31.2734,0 0,-31.27539 31.2754,0 0,-31.27539 31.2754,0 0,-31.27539 31.2734,0 0,-31.27344 31.2774,0 0,-31.27539 12.5742,0 0,-0.75 -12.5742,0 0,-30.52539 12.5742,0 0,-0.75 -13.3242,0 z m 3.8984,3.90039 0,0.375 0,23.84961 9.4258,0 0,-0.75 -8.6758,0 0,-22.72461 8.6758,0 0,-0.75 -9.4258,0 z m -7.8008,0.375 0,23.09961 -23.0976,0 0,0.75 23.8476,0 0,-23.84961 -0.75,0 z m 11.7774,3.52539 0,0.375 0,16.04883 5.4492,0 0,-0.75 -4.6992,0 0,-14.92383 4.6992,0 0,-0.75 -5.4492,0 z m -15.6758,0.375 0,15.22461 -15.3008,0 0,0.75 16.0508,0 0,-15.97461 -0.75,0 z m 19.5742,3.52344 0,8.55078 0.375,0 1.1758,0 0,-0.75 -0.8008,0 0,-7.05078 0.8008,0 0,-0.75 -1.5508,0 z m -23.4746,0.375 0,7.42578 -7.4238,0 0,0.75 8.1738,0 0,-8.17578 -0.75,0 z m -18.8262,19.95117 30.5274,0 0,30.52539 -30.5274,0 0,-30.52539 z m 3.1524,3.15039 0,0.375 0,23.84961 24.2246,0 0,-24.22461 -24.2246,0 z m 31.2734,0 0,23.84961 0.75,0 0,-23.09961 8.6758,0 0,-0.75 -9.4258,0 z m -39.0742,0.375 0,23.09961 -23.1016,0 0,0.75 23.8516,0 0,-23.84961 -0.75,0 z m 8.5508,0.375 22.7246,0 0,22.72461 -22.7246,0 0,-22.72461 z m 3.1484,3.14844 0,0.375 0,16.05078 16.4258,0 0,-16.42578 -16.4258,0 z m 31.3516,0 0,16.05078 0.75,0 0,-15.30078 4.6992,0 0,-0.75 -5.4492,0 z m -46.9512,0.375 0,15.30078 -15.2988,0 0,0.75 16.0488,0 0,-16.05078 -0.75,0 z m 16.3496,0.375 14.9258,0 0,14.92578 -14.9258,0 0,-14.92578 z m 3.2266,3.15039 0,0.375 0,8.17578 8.5488,0 0,-8.55078 -8.5488,0 z m 31.2734,0 0,8.17578 0.75,0 0,-7.42578 0.8008,0 0,-0.75 -1.5508,0 z m -54.75,0.375 0,7.42578 -7.5,0 0,0.75 8.25,0 0,-8.17578 -0.75,0 z m 24.2266,0.375 7.0488,0 0,7.05078 -7.0488,0 0,-7.05078 z m -43.0508,19.57617 30.5234,0 0,30.52344 -30.5234,0 0,-30.52344 z m 3.1484,3.14844 0,24.22656 23.4766,0 0.375,0 0.375,0 0,-24.22656 -0.375,0 -23.8516,0 z m 31.2774,0 0,23.85156 0.75,0 0,-23.10156 23.0976,0 0,-0.75 -23.8476,0 z m -39.0762,0.375 0,23.10156 -23.0996,0 0,0.75 23.8496,0 0,-23.85156 -0.75,0 z m 8.5488,0.375 22.7266,0 0,22.72656 -22.7266,0 0,-22.72656 z m 3.1524,3.15039 0,0.375 0,16.05078 16.4238,0 0,-16.42578 -16.4238,0 z m 31.2734,0 0,16.05078 0.75,0 0,-15.30078 15.3008,0 0,-0.75 -16.0508,0 z m -46.875,0.375 0,15.30078 -15.3008,0 0,0.75 16.0508,0 0,-16.05078 -0.75,0 z m 16.3516,0.375 14.9238,0 0,14.92578 -14.9238,0 0,-14.92578 z m 3.1484,3.15039 0,8.625 0.375,0 8.25,0 0,-8.625 -8.625,0 z m 31.3516,0 0,8.25 0.75,0 0,-7.5 7.4238,0 0,-0.75 -8.1738,0 z m -54.75,0.375 0,7.5 -7.5,0 0,0.75 8.25,0 0,-8.25 -0.75,0 z m 24.1484,0.375 7.125,0 0,7.125 -7.125,0 0,-7.125 z m -42.9746,19.57422 30.5254,0 0,30.52539 -30.5254,0 0,-30.52539 z m 3.1504,3.15039 0,0.375 0,23.84961 24.2246,0 0,-24.22461 -24.2246,0 z m 31.2734,0 0,23.84961 0.75,0 0,-23.09961 23.1016,0 0,-0.75 -23.8516,0 z m -39.0742,0.375 0,23.09961 -23.0996,0 0,0.75 23.8496,0 0,-23.84961 -0.75,0 z m 8.5508,0.375 22.7246,0 0,22.72461 -22.7246,0 0,-22.72461 z m 3.1504,3.15039 0,0.375 0,16.05078 16.4238,0 0,-16.42578 -16.4238,0 z m 31.2754,0 0,16.05078 0.75,0 0,-15.30078 15.2988,0 0,-0.75 -16.0488,0 z m -46.875,0.375 0,15.30078 -15.3008,0 0,0.75 16.0508,0 0,-16.05078 -0.75,0 z m 16.3496,0.375 14.9238,0 0,14.92578 -14.9238,0 0,-14.92578 z m 3.1504,3.15039 0,0.375 0,8.17383 8.5488,0 0,-8.54883 -8.5488,0 z m 31.2734,0 0,8.25 0.75,0 0,-7.5 7.5,0 0,-0.75 -8.25,0 z m -54.75,0.375 0,7.5 -7.4258,0 0,0.75 8.1758,0 0,-8.25 -0.75,0 z m 24.2266,0.375 7.0488,0 0,7.04883 -7.0488,0 0,-7.04883 z m -42.9766,19.57422 30.5254,0 0,30.52539 -30.5254,0 0,-30.52539 z m 3.1504,3.15039 0,24.22461 0.375,0 23.0996,0 0.375,0 0.375,0 0,-24.22461 -24.2246,0 z m 31.2754,0 0,23.84961 0.75,0 0,-23.09961 23.0996,0 0,-0.75 -23.8496,0 z m -39.0742,0.375 0,23.09961 -23.1016,0 0,0.75 23.8516,0 0,-23.84961 -0.75,0 z m 8.5488,0.375 22.7246,0 0,22.72461 -22.7246,0 0,-22.72461 z m 3.1504,3.15039 0,0.375 0,16.04883 16.4258,0 0,-16.42383 -16.4258,0 z m 31.2734,0 0,16.04883 0.75,0 0,-15.29883 15.3008,0 0,-0.75 -16.0508,0 z m -46.9492,0.375 0,15.29883 -15.2246,0 0,0.75 15.9746,0 0,-16.04883 -0.75,0 z m 16.4258,0.375 14.9258,0 0,14.92383 -14.9258,0 0,-14.92383 z m 3.1484,3.22461 0,8.55078 8.5508,0 0,-8.55078 -0.375,0 -8.1758,0 z m 31.2774,0 0,8.17578 0.75,0 0,-7.42578 7.5,0 0,-0.75 -8.25,0 z m -54.75,0.375 0,7.42578 -7.4258,0 0,0.75 8.1758,0 0,-8.17578 -0.75,0 z m 24.2226,0.375 7.0508,0 0,7.05078 -7.0508,0 0,-7.05078 z m -42.9726,19.5 30.5234,0 0,30.52539 -30.5234,0 0,-30.52539 z m 3.1484,3.15039 0,0.375 0,23.849609 24.2266,0 0,-24.224609 -24.2266,0 z m 31.2754,0 0,23.849609 0.75,0 0,-23.099609 23.0996,0 0,-0.75 -23.8496,0 z m -39.1504,0.375 0,23.099609 -23.0234,0 0,0.75 23.7734,0 0,-23.849609 -0.75,0 z m 8.625,0.375 22.7266,0 0,22.724609 -22.7266,0 0,-22.724609 z m 3.1504,3.224609 0,0.375 0,16.050782 16.4258,0 0,-16.425782 -16.4258,0 z m 31.2754,0 0,15.97461 0.75,0 0,-15.22461 15.3008,0 0,-0.75 -16.0508,0 z m -46.9492,0.375 0,15.22461 -15.2266,0 0,0.75 15.9766,0 0,-15.97461 -0.75,0 z m 16.4238,0.375 14.9258,0 0,14.925782 -14.9258,0 0,-14.925782 z m 3.1504,3.150391 0,0.375 0,8.173828 8.5508,0 0,-8.548828 -8.5508,0 z m 31.2734,0 0,8.173828 0.75,0 0,-7.423828 7.4258,0 0,-0.75 -8.1758,0 z m -54.75,0.375 0,7.423828 -7.4238,0 0,0.75 8.1738,0 0,-8.173828 -0.75,0 z m 24.2266,0.375 7.0508,0 0,7.048828 -7.0508,0 0,-7.048828 z m -43.0508,19.5 30.6016,0 0,30.599609 -30.6016,0 0,-30.599609 z m 3.2266,3.224609 0,0.375 0,23.84961 24.2246,0 0,-24.22461 -24.2246,0 z m 31.2734,0 0,23.775391 0.75,0 0,-23.025391 23.1016,0 0,-0.75 -23.8516,0 z m -39.1484,0.375 0,23.025391 -23.10158,0 0,0.75 23.85158,0 0,-23.775391 -0.75,0 z m 8.625,0.375 22.7246,0 0,22.72461 -22.7246,0 0,-22.72461 z m 3.1484,3.150391 0,0.375 0,16.048828 16.4258,0 0,-16.423828 -16.4258,0 z m 31.2754,0 0,15.974609 0.75,0 0,-15.224609 15.2246,0 0,-0.75 -15.9746,0 z m -46.9512,0.375 0,15.224609 -15.22262,0 0,0.75 15.97262,0 0,-15.974609 -0.75,0 z m 16.4258,0.375 14.9258,0 0,14.923828 -14.9258,0 0,-14.923828 z m 3.5254,3.150391 0,0.75 -0.375,-0.375 0,8.173828 0.375,0 8.1738,0 0,-8.548828 -8.1738,0 z m 30.9004,0 0,8.173828 0.75,0 0,-7.423828 7.4258,0 0,-0.75 -8.1758,0 z m -54.75,0.375 0,7.423828 -7.4258,0 0,0.75 8.1758,0 0,-8.173828 -0.75,0 z m 24.2246,0.375 7.0488,0 0,7.048828 -7.0488,0 0,-7.048828 z m -43.04882,19.574218 30.52342,0 0,30.525391 -30.52342,0 0,-30.525391 z m 3.14844,3.150391 0,0.375 0,23.849609 24.22658,0 0,-24.224609 -24.22658,0 z m 31.35158,0 0,23.849609 0.75,0 0,-23.099609 23.0234,0 0,-0.75 -23.7734,0 z m -39.15236,0.375 0,23.099609 -23.09766,0 0,0.75 23.84766,0 0,-23.849609 -0.75,0 z m 8.55078,0.375 22.72658,0 0,22.724609 -22.72658,0 0,-22.724609 z m 3.22656,3.150391 0,0.375 0,16.048828 16.42382,0 0,-16.423828 -16.42382,0 z m 31.27342,0 0,15.974609 0.75,0 0,-15.224609 15.2266,0 0,-0.75 -15.9766,0 z m -46.9492,0.375 0,15.224609 -15.30078,0 0,0.75 16.05078,0 0,-15.974609 -0.75,0 z m 16.42578,0.375 14.92382,0 0,14.923828 -14.92382,0 0,-14.923828 z m 3.14842,3.148437 0,0.375 0,8.175781 8.5508,0 0,-8.550781 -8.5508,0 z m 31.2754,0 0,8.175781 0.75,0 0,-7.425781 7.4238,0 0,-0.75 -8.1738,0 z m -54.74999,0.375 0,7.425781 -7.42383,0 0,0.75 8.17383,0 0,-8.175781 -0.75,0 z m 24.22459,0.375 7.0508,0 0,7.050781 -7.0508,0 0,-7.050781 z m -43.05076,19.576172 30.52734,0 0,30.525391 -30.52734,0 0,-30.525391 z m 3.15234,3.1503906 0,24.2246094 23.47266,0 0.375,0 0.375,0 0,-24.2246094 -0.375,0 -23.84766,0 z m 31.27344,0 0,23.8496094 0.75,0 0,-23.0996094 23.10158,0 0,-0.75 -23.85158,0 z m -39.07422,0.375 0,23.0996094 -23.10156,0 0,0.75 23.85156,0 0,-23.8496094 -0.75,0 z m 8.55078,0.375 22.72266,0 0,22.7246094 -22.72266,0 0,-22.7246094 z m 3.14844,3.1484375 0,0.375 0,16.0507809 16.42578,0 0,-16.4257809 -16.42578,0 z m 31.35156,0 0,16.0507809 0.75,0 0,-15.3007809 15.22262,0 0,-0.75 -15.97262,0 z m -46.95117,0.375 0,15.3007813 -15.29883,0 0,0.7499996 16.04883,0 0,-16.0507809 -0.75,0 z m 16.34961,0.375 14.92578,0 0,14.9257813 -14.92578,0 0,-14.9257813 z m 3.22656,3.1503907 0,8.5507812 0.375,0 8.17383,0 0,-8.5507812 -8.54883,0 z m 31.27342,0 0,8.1757812 0.75,0 0,-7.4257812 7.4258,0 0,-0.75 -8.1758,0 z m -54.74998,0.375 0,7.4257812 -7.5,0 0,0.75 8.25,0 0,-8.1757812 -0.75,0 z m 24.22656,0.375 7.04883,0 0,7.0507812 -7.04883,0 0,-7.0507812 z M 928.375,18.462891 l 30.52344,0 0,30.523437 -30.52344,0 0,-30.523437 z m 3.15039,3.148437 0,0.375 0,23.851563 24.22461,0 0,-24.226563 -24.22461,0 z m 31.27539,0 0,23.851563 0.75,0 0,-23.101563 23.09766,0 0,-0.75 -23.84766,0 z m -39.07617,0.375 0,23.101563 -23.09961,0 0,0.75 23.84961,0 0,-23.851563 -0.75,0 z m 8.55078,0.375 22.72461,0 0,22.726563 -22.72461,0 0,-22.726563 z m 3.15039,3.150391 0,0.375 0,16.050781 16.42383,0 0,-16.425781 -16.42383,0 z m 31.27344,0 0,16.050781 0.75,0 0,-15.300781 15.30078,0 0,-0.75 -16.05078,0 z m -46.875,0.375 0,15.300781 -15.30078,0 0,0.75 16.05078,0 0,-16.050781 -0.75,0 z m 16.35156,0.375 14.92383,0 0,14.925781 -14.92383,0 0,-14.925781 z m 3.14844,3.15039 0,0.375 0,8.175782 8.55078,0 0,-8.550782 -8.55078,0 z m 31.35156,0 0,8.25 0.75,0 0,-7.5 7.42383,0 0,-0.75 -8.17383,0 z m -54.75,0.375 0,7.5 -7.5,0 0,0.75 8.25,0 0,-8.25 -0.75,0 z m 24.14844,0.375 7.05078,0 0,7.050782 -7.05078,0 0,-7.050782 z m -42.97461,19.574219 30.52539,0 0,30.525391 -30.52539,0 0,-30.525391 z m 3.15039,3.150391 0,0.375 0,23.849609 24.22461,0 0,-24.224609 -24.22461,0 z m 31.27344,0 0,23.849609 0.75,0 0,-23.099609 23.10156,0 0,-0.75 -23.85156,0 z m -39.07422,0.375 0,23.099609 -23.09961,0 0,0.75 23.84961,0 0,-23.849609 -0.75,0 z m 8.55078,0.375 22.72461,0 0,22.724609 -22.72461,0 0,-22.724609 z m 3.15039,3.15039 0,0.375 0,16.050782 16.42383,0 0,-16.425782 -16.42383,0 z m 31.27539,0 0,16.050782 0.75,0 0,-15.300782 15.29883,0 0,-0.75 -16.04883,0 z m -46.875,0.375 0,15.300782 -15.30078,0 0,0.75 16.05078,0 0,-16.050782 -0.75,0 z m 16.34961,0.375 14.92383,0 0,14.925782 -14.92383,0 0,-14.925782 z m 3.15039,3.150391 0,8.625 8.625,0 0,-8.625 -0.375,0 -8.25,0 z m 31.27344,0 0,8.25 0.75,0 0,-7.5 7.5,0 0,-0.75 -8.25,0 z m -54.75,0.375 0,7.5 -7.42578,0 0,0.75 8.17578,0 0,-8.25 -0.75,0 z m 24.22656,0.375 7.125,0 0,7.125 -7.125,0 0,-7.125 z m -42.97656,19.574219 30.52539,0 0,30.525391 -30.52539,0 0,-30.525391 z m 3.15039,3.15039 0,0.375 0,23.849611 24.22461,0 0,-24.224611 -24.22461,0 z m 31.27539,0 0,23.849611 0.75,0 0,-23.099611 23.09961,0 0,-0.75 -23.84961,0 z m -39.07422,0.375 0,23.099611 -23.10156,0 0,0.75 23.85156,0 0,-23.849611 -0.75,0 z m 8.54883,0.375 22.72461,0 0,22.724611 -22.72461,0 0,-22.724611 z m 3.15039,3.150391 0,0.375 0,16.04883 16.42578,0 0,-16.42383 -16.42578,0 z m 31.27344,0 0,16.04883 0.75,0 0,-15.29883 15.30078,0 0,-0.75 -16.05078,0 z m -46.94922,0.375 0,15.29883 -15.22461,0 0,0.75 15.97461,0 0,-16.04883 -0.75,0 z m 16.42578,0.375 14.92578,0 0,14.92383 -14.92578,0 0,-14.92383 z m 3.15039,3.224609 0,0.375 0,8.175781 8.54883,0 0,-8.550781 -8.54883,0 z m 31.27539,0 0,8.175781 0.75,0 0,-7.425781 7.5,0 0,-0.75 -8.25,0 z m -54.75,0.375 0,7.425782 -7.42578,0 0,0.749999 8.17578,0 0,-8.175781 -0.75,0 z m 24.22461,0.375 7.04883,0 0,7.050782 -7.04883,0 0,-7.050782 z m -39.82617,22.650391 0,0.375 0,7.04883 0.75,0 0,-6.67383 22.72656,0 0,6.67383 0.75,0 0,-7.42383 -24.22656,0 z m 31.27539,0 0,7.42383 0.75,0 0,-6.67383 23.09961,0 0,-0.75 -23.84961,0 z m -39.15039,0.375 0,7.04883 0.75,0 0,-7.04883 -0.75,0 z m 11.77539,3.59961 0,0.375 0,3.07422 0.75,0 0,-2.69922 14.92578,0 0,2.69922 0.75,0 0,-3.44922 -16.42578,0 z m 31.27539,0 0,3.44922 0.75,0 0,-2.69922 15.30078,0 0,-0.75 -16.05078,0 z m -46.94922,0.375 0,3.07422 0.75,0 0,-3.07422 -0.75,0 z"
         style="color:#000000;font-style:normal;font-variant:normal;font-weight:normal;font-stretch:normal;font-size:medium;line-height:normal;font-family:sans-serif;text-indent:0;text-align:start;text-decoration:none;text-decoration-line:none;text-decoration-style:solid;text-decoration-color:#000000;letter-spacing:normal;word-spacing:normal;text-transform:none;direction:ltr;block-progression:tb;writing-mode:lr-tb;baseline-shift:baseline;text-anchor:start;white-space:normal;clip-rule:nonzero;display:inline;overflow:visible;visibility:visible;opacity:1;isolation:auto;mix-blend-mode:normal;color-interpolation:sRGB;color-interpolation-filters:linearRGB;solid-color:#000000;solid-opacity:1;fill:#a30000;fill-opacity:1;fill-rule:nonzero;stroke:none;stroke-width:1;stroke-linecap:butt;stroke-linejoin:miter;stroke-miterlimit:4;stroke-dasharray:none;stroke-dashoffset:0;stroke-opacity:1;color-rendering:auto;image-rendering:auto;shape-rendering:auto;text-rendering:auto;enable-background:accumulate" />
    </g>
  </g>
</svg>
